<?xml version="1.0" standalone="no"?>
<!DOCTYPE svg PUBLIC "-//W3C//DTD SVG 20010904//EN"
 "http://www.w3.org/TR/2001/REC-SVG-20010904/DTD/svg10.dtd">
<svg version="1.0" xmlns="http://www.w3.org/2000/svg"
 width="50.000000pt" height="50.000000pt" viewBox="0 0 50.000000 50.000000"
 preserveAspectRatio="xMidYMid meet">

<g transform="translate(0.000000,50.000000) scale(0.100000,-0.100000)"
fill="#ff4c68" stroke="none">
<path d="M22 418 c-7 -7 -12 -18 -12 -25 0 -7 54 -51 120 -98 l121 -86 119 86
c66 48 120 88 120 91 0 3 -5 14 -10 25 -10 18 -23 19 -228 19 -156 0 -221 -3
-230 -12z m387 -26 c-13 -10 -54 -39 -91 -66 l-68 -47 -67 47 c-133 94 -141
84 67 84 178 0 182 0 159 -18z"/>
<path d="M10 226 c0 -124 2 -136 19 -146 12 -6 102 -10 225 -10 173 0 207 2
220 16 13 12 16 41 16 145 l0 130 -30 -23 -30 -22 0 -113 0 -113 -180 0 -180
0 0 114 0 115 -30 21 -30 21 0 -135z"/>
</g>
</svg>
