<?xml version="1.0" standalone="no"?>
<!DOCTYPE svg PUBLIC "-//W3C//DTD SVG 20010904//EN"
 "http://www.w3.org/TR/2001/REC-SVG-20010904/DTD/svg10.dtd">
<svg version="1.0" xmlns="http://www.w3.org/2000/svg"
 width="50.000000pt" height="50.000000pt" viewBox="0 0 50.000000 50.000000"
 preserveAspectRatio="xMidYMid meet">

<g transform="translate(0.000000,50.000000) scale(0.100000,-0.100000)"
fill="#ff4c68" stroke="none">
<path d="M374 415 c-17 -18 -24 -34 -22 -53 3 -24 0 -27 -23 -24 -29 3 -79
-40 -79 -69 0 -23 27 -49 51 -49 31 0 71 46 67 78 -3 24 0 27 23 24 29 -3 79
40 79 68 0 21 -31 50 -54 50 -9 0 -28 -11 -42 -25z m74 -17 c2 -9 -6 -26 -17
-37 -25 -25 -50 -29 -31 -6 17 20 5 32 -15 15 -23 -19 -19 6 6 31 23 23 52 22
57 -3z m-128 -93 c-17 -20 -5 -32 15 -15 23 19 19 -6 -6 -31 -11 -11 -28 -19
-37 -17 -26 5 -27 44 0 62 29 20 44 21 28 1z"/>
<path d="M59 371 c-28 -29 -29 -32 -29 -130 l0 -101 85 0 85 0 0 101 c0 98 -1
101 -29 130 -18 17 -40 29 -56 29 -16 0 -38 -12 -56 -29z m91 -81 c0 -5 -16
-10 -35 -10 -19 0 -35 5 -35 10 0 6 16 10 35 10 19 0 35 -4 35 -10z"/>
<path d="M200 368 c16 -27 20 -51 20 -130 l0 -98 105 0 105 0 0 84 c0 79 -1
84 -20 79 -11 -3 -20 -13 -20 -22 0 -26 -62 -81 -91 -81 -32 0 -69 38 -69 71
0 29 56 89 83 89 10 0 17 8 17 20 0 18 -7 20 -75 20 l-75 0 20 -32z"/>
<path d="M230 80 c0 -38 2 -40 30 -40 28 0 30 2 30 40 0 38 -2 40 -30 40 -28
0 -30 -2 -30 -40z"/>
</g>
</svg>
