<?xml version="1.0" standalone="no"?>
<!DOCTYPE svg PUBLIC "-//W3C//DTD SVG 20010904//EN"
 "http://www.w3.org/TR/2001/REC-SVG-20010904/DTD/svg10.dtd">
<svg version="1.0" xmlns="http://www.w3.org/2000/svg"
 width="24.000000pt" height="24.000000pt" viewBox="0 0 24.000000 24.000000"
 preserveAspectRatio="xMidYMid meet">

<g transform="translate(0.000000,24.000000) scale(0.100000,-0.100000)"
fill="#ff4c68" stroke="none">
<path d="M132 208 c-7 -7 -12 -21 -12 -31 0 -16 -5 -18 -27 -13 -16 4 -40 16
-55 27 l-28 19 3 -39 c1 -21 9 -46 16 -55 7 -9 10 -16 5 -16 -5 -1 2 -10 15
-20 l23 -20 -31 -6 c-47 -10 -26 -24 36 -24 51 0 58 3 94 39 28 27 39 47 39
68 0 16 3 33 8 37 13 14 8 31 -13 38 -33 10 -60 9 -73 -4z"/>
</g>
</svg>
